<svg width="63" height="63" viewBox="0 0 63 63" fill="none" xmlns="http://www.w3.org/2000/svg">
<g opacity="0.2" filter="url(#filter0_d_149_2202)">
<rect x="9" y="9" width="44.0541" height="44.0541" rx="5.50676" fill="white"/>
</g>
<path fill-rule="evenodd" clip-rule="evenodd" d="M36.75 31C36.75 30.5858 36.4142 30.25 36 30.25H33.625C33.2108 30.25 32.875 30.5858 32.875 31C32.875 31.4142 33.2108 31.75 33.625 31.75H36C36.4142 31.75 36.75 31.4142 36.75 31ZM32 31C32 30.5858 31.6642 30.25 31.25 30.25H26.5C26.0858 30.25 25.75 30.5858 25.75 31C25.75 31.4142 26.0858 31.75 26.5 31.75H31.25C31.6642 31.75 32 31.4142 32 31Z" fill="white"/>
<path fill-rule="evenodd" clip-rule="evenodd" d="M36.75 31C36.75 30.5858 36.4142 30.25 36 30.25H33.625C33.2108 30.25 32.875 30.5858 32.875 31C32.875 31.4142 33.2108 31.75 33.625 31.75H36C36.4142 31.75 36.75 31.4142 36.75 31ZM32 31C32 30.5858 31.6642 30.25 31.25 30.25H26.5C26.0858 30.25 25.75 30.5858 25.75 31C25.75 31.4142 26.0858 31.75 26.5 31.75H31.25C31.6642 31.75 32 31.4142 32 31Z" fill="url(#paint0_linear_149_2202)"/>
<path fill-rule="evenodd" clip-rule="evenodd" d="M30.0303 26.9697C29.7374 26.6768 29.2626 26.6768 28.9697 26.9697L25.4697 30.4697C25.1768 30.7626 25.1768 31.2374 25.4697 31.5303L28.9697 35.0303C29.2626 35.3232 29.7374 35.3232 30.0303 35.0303C30.3232 34.7374 30.3232 34.2626 30.0303 33.9697L27.0607 31L30.0303 28.0303C30.3232 27.7374 30.3232 27.2626 30.0303 26.9697Z" fill="white"/>
<path fill-rule="evenodd" clip-rule="evenodd" d="M30.0303 26.9697C29.7374 26.6768 29.2626 26.6768 28.9697 26.9697L25.4697 30.4697C25.1768 30.7626 25.1768 31.2374 25.4697 31.5303L28.9697 35.0303C29.2626 35.3232 29.7374 35.3232 30.0303 35.0303C30.3232 34.7374 30.3232 34.2626 30.0303 33.9697L27.0607 31L30.0303 28.0303C30.3232 27.7374 30.3232 27.2626 30.0303 26.9697Z" fill="url(#paint1_linear_149_2202)"/>
<defs>
<filter id="filter0_d_149_2202" x="0" y="0" width="62.0541" height="62.0537" filterUnits="userSpaceOnUse" color-interpolation-filters="sRGB">
<feFlood flood-opacity="0" result="BackgroundImageFix"/>
<feColorMatrix in="SourceAlpha" type="matrix" values="0 0 0 0 0 0 0 0 0 0 0 0 0 0 0 0 0 0 127 0" result="hardAlpha"/>
<feOffset/>
<feGaussianBlur stdDeviation="4.5"/>
<feComposite in2="hardAlpha" operator="out"/>
<feColorMatrix type="matrix" values="0 0 0 0 0 0 0 0 0 0 0 0 0 0 0 0 0 0 0.08 0"/>
<feBlend mode="normal" in2="BackgroundImageFix" result="effect1_dropShadow_149_2202"/>
<feBlend mode="normal" in="SourceGraphic" in2="effect1_dropShadow_149_2202" result="shape"/>
</filter>
<linearGradient id="paint0_linear_149_2202" x1="36.4408" y1="30.25" x2="36.1717" y2="33.2503" gradientUnits="userSpaceOnUse">
<stop stop-color="white"/>
<stop offset="1" stop-color="white"/>
</linearGradient>
<linearGradient id="paint1_linear_149_2202" x1="30.1095" y1="26.75" x2="21.5932" y2="34.367" gradientUnits="userSpaceOnUse">
<stop stop-color="white"/>
<stop offset="1" stop-color="white"/>
</linearGradient>
</defs>
</svg>
