<svg width="306" height="296" viewBox="0 0 306 296" fill="none" xmlns="http://www.w3.org/2000/svg">
<g style="mix-blend-mode:overlay" filter="url(#filter0_f_149_3494)">
<circle cx="152.948" cy="142.948" r="61.9481" fill="#FFB7B1"/>
</g>
<rect x="103.452" y="96.7295" width="26.9964" height="85.5985" rx="13.4982" fill="white"/>
<rect x="186.08" y="90.1904" width="26.9964" height="68.3399" rx="13.4982" transform="rotate(52.5213 186.08 90.1904)" fill="url(#paint0_linear_149_3494)"/>
<path fill-rule="evenodd" clip-rule="evenodd" d="M150.211 117.672C152.368 123.6 158.776 135.358 167.179 138.763L158.985 145.045C156.219 147.166 152.893 148.051 149.672 147.787C146.812 147.783 143.93 146.875 141.485 145L130.447 136.537V137.766C129.104 142.896 125.014 152.337 117.5 155.392C109.502 158.644 105.164 164.642 103.754 171.75C103.555 170.829 103.451 169.872 103.451 168.891V110.406C103.139 107.131 104.017 103.735 106.177 100.919C110.713 95.0025 119.186 93.8838 125.102 98.4198L150.211 117.672Z" fill="url(#paint1_linear_149_3494)"/>
<rect x="170.173" y="95.6328" width="26.9964" height="86.6959" rx="13.4982" fill="url(#paint2_linear_149_3494)"/>
<path fill-rule="evenodd" clip-rule="evenodd" d="M170.173 110.387C172.124 114.6 177.75 123.356 186.526 128.335C194.021 132.587 196.606 138.215 197.17 141.733V168.831C197.17 176.286 191.126 182.329 183.672 182.329C176.217 182.329 170.173 176.286 170.173 168.831V110.387Z" fill="url(#paint3_linear_149_3494)"/>
<path d="M214.26 112.362H216.443L223.952 130.391H224.134L231.642 112.362H233.825V133.059H232.047V116.354H231.885L224.902 133.059H223.184L216.201 116.354H216.039V133.059H214.26V112.362ZM244.987 133.382C243.647 133.382 242.461 133.042 241.43 132.361C240.406 131.681 239.604 130.741 239.025 129.542C238.445 128.336 238.156 126.945 238.156 125.368C238.156 123.778 238.445 122.38 239.025 121.174C239.604 119.961 240.406 119.018 241.43 118.345C242.461 117.664 243.647 117.324 244.987 117.324C246.328 117.324 247.51 117.664 248.534 118.345C249.558 119.025 250.36 119.968 250.94 121.174C251.526 122.38 251.819 123.778 251.819 125.368C251.819 126.945 251.529 128.336 250.95 129.542C250.37 130.741 249.565 131.681 248.534 132.361C247.51 133.042 246.328 133.382 244.987 133.382ZM244.987 131.735C246.065 131.735 246.978 131.445 247.726 130.866C248.474 130.286 249.04 129.515 249.424 128.551C249.814 127.588 250.01 126.527 250.01 125.368C250.01 124.209 249.814 123.145 249.424 122.175C249.04 121.204 248.474 120.426 247.726 119.84C246.978 119.254 246.065 118.961 244.987 118.961C243.916 118.961 243.003 119.254 242.249 119.84C241.501 120.426 240.931 121.204 240.541 122.175C240.157 123.145 239.965 124.209 239.965 125.368C239.965 126.527 240.157 127.588 240.541 128.551C240.931 129.515 241.501 130.286 242.249 130.866C242.996 131.445 243.909 131.735 244.987 131.735ZM261.882 117.536V119.102H254.474V117.536H261.882ZM256.788 113.817H258.597V129.006C258.597 129.653 258.708 130.162 258.931 130.532C259.153 130.896 259.443 131.155 259.8 131.31C260.157 131.459 260.538 131.533 260.942 131.533C261.178 131.533 261.38 131.519 261.548 131.492C261.717 131.459 261.865 131.425 261.993 131.391L262.377 133.018C262.202 133.086 261.986 133.146 261.73 133.2C261.474 133.261 261.157 133.291 260.78 133.291C260.12 133.291 259.483 133.146 258.87 132.856C258.264 132.567 257.765 132.136 257.374 131.563C256.984 130.99 256.788 130.279 256.788 129.431V113.817ZM265.987 133.059V117.536H267.796V133.059H265.987ZM266.907 114.868C266.536 114.868 266.22 114.743 265.957 114.494C265.694 114.238 265.563 113.932 265.563 113.575C265.563 113.218 265.694 112.914 265.957 112.665C266.22 112.409 266.536 112.281 266.907 112.281C267.277 112.281 267.594 112.409 267.857 112.665C268.119 112.914 268.251 113.218 268.251 113.575C268.251 113.932 268.119 114.238 267.857 114.494C267.594 114.743 267.277 114.868 266.907 114.868ZM284.569 117.536L278.9 133.059H276.98L271.31 117.536H273.261L277.869 130.684H278.01L282.619 117.536H284.569ZM293.808 133.382C292.36 133.382 291.107 133.045 290.049 132.371C288.991 131.691 288.173 130.751 287.593 129.552C287.021 128.346 286.734 126.958 286.734 125.388C286.734 123.825 287.021 122.437 287.593 121.225C288.173 120.005 288.971 119.052 289.988 118.365C291.012 117.671 292.195 117.324 293.536 117.324C294.378 117.324 295.19 117.479 295.971 117.789C296.753 118.092 297.453 118.56 298.073 119.193C298.7 119.82 299.195 120.612 299.559 121.568C299.922 122.518 300.104 123.643 300.104 124.944V125.833H287.977V124.246H298.265C298.265 123.249 298.063 122.353 297.659 121.558C297.261 120.756 296.705 120.123 295.991 119.658C295.284 119.193 294.465 118.961 293.536 118.961C292.552 118.961 291.686 119.224 290.938 119.749C290.191 120.275 289.604 120.969 289.18 121.831C288.762 122.693 288.55 123.637 288.543 124.661V125.611C288.543 126.844 288.755 127.921 289.18 128.844C289.611 129.761 290.221 130.472 291.009 130.977C291.797 131.482 292.73 131.735 293.808 131.735C294.543 131.735 295.186 131.62 295.739 131.391C296.298 131.162 296.766 130.856 297.143 130.472C297.527 130.081 297.817 129.653 298.012 129.188L299.72 129.744C299.484 130.397 299.097 131 298.558 131.553C298.026 132.105 297.359 132.55 296.557 132.887C295.762 133.217 294.846 133.382 293.808 133.382ZM214.018 146.362H217.009L224.043 163.542H224.285L231.319 146.362H234.31V167.059H231.966V151.334H231.764L225.296 167.059H223.032L216.565 151.334H216.363V167.059H214.018V146.362ZM245.318 167.382C243.917 167.382 242.687 167.048 241.63 166.382C240.579 165.715 239.757 164.781 239.164 163.582C238.578 162.383 238.285 160.982 238.285 159.378C238.285 157.761 238.578 156.35 239.164 155.144C239.757 153.938 240.579 153.001 241.63 152.334C242.687 151.667 243.917 151.334 245.318 151.334C246.72 151.334 247.946 151.667 248.997 152.334C250.054 153.001 250.876 153.938 251.463 155.144C252.055 156.35 252.352 157.761 252.352 159.378C252.352 160.982 252.055 162.383 251.463 163.582C250.876 164.781 250.054 165.715 248.997 166.382C247.946 167.048 246.72 167.382 245.318 167.382ZM245.318 165.24C246.383 165.24 247.259 164.967 247.946 164.421C248.633 163.875 249.142 163.158 249.472 162.268C249.802 161.379 249.967 160.416 249.967 159.378C249.967 158.341 249.802 157.374 249.472 156.478C249.142 155.582 248.633 154.858 247.946 154.305C247.259 153.753 246.383 153.476 245.318 153.476C244.254 153.476 243.378 153.753 242.691 154.305C242.003 154.858 241.495 155.582 241.165 156.478C240.835 157.374 240.67 158.341 240.67 159.378C240.67 160.416 240.835 161.379 241.165 162.268C241.495 163.158 242.003 163.875 242.691 164.421C243.378 164.967 244.254 165.24 245.318 165.24ZM256.316 167.059V146.362H258.701V154.002H258.903C259.078 153.732 259.321 153.389 259.631 152.971C259.947 152.547 260.399 152.169 260.985 151.839C261.578 151.502 262.379 151.334 263.39 151.334C264.697 151.334 265.849 151.661 266.846 152.314C267.843 152.968 268.621 153.894 269.181 155.093C269.74 156.293 270.019 157.707 270.019 159.338C270.019 160.982 269.74 162.407 269.181 163.613C268.621 164.812 267.847 165.741 266.856 166.402C265.866 167.055 264.724 167.382 263.43 167.382C262.433 167.382 261.635 167.217 261.035 166.887C260.436 166.55 259.974 166.169 259.651 165.745C259.327 165.314 259.078 164.957 258.903 164.674H258.62V167.059H256.316ZM258.66 159.297C258.66 160.47 258.832 161.504 259.176 162.4C259.519 163.289 260.021 163.986 260.682 164.492C261.342 164.99 262.15 165.24 263.107 165.24C264.104 165.24 264.936 164.977 265.603 164.451C266.277 163.919 266.782 163.205 267.119 162.309C267.463 161.406 267.634 160.402 267.634 159.297C267.634 158.206 267.466 157.222 267.129 156.346C266.799 155.464 266.297 154.767 265.623 154.255C264.956 153.736 264.118 153.476 263.107 153.476C262.137 153.476 261.322 153.722 260.661 154.214C260.001 154.699 259.503 155.38 259.166 156.255C258.829 157.125 258.66 158.139 258.66 159.297Z" fill="white"/>
<defs>
<filter id="filter0_f_149_3494" x="0.142761" y="-9.85724" width="305.61" height="305.611" filterUnits="userSpaceOnUse" color-interpolation-filters="sRGB">
<feFlood flood-opacity="0" result="BackgroundImageFix"/>
<feBlend mode="normal" in="SourceGraphic" in2="BackgroundImageFix" result="shape"/>
<feGaussianBlur stdDeviation="45.4286" result="effect1_foregroundBlur_149_3494"/>
</filter>
<linearGradient id="paint0_linear_149_3494" x1="199.578" y1="90.1904" x2="200.749" y2="142.225" gradientUnits="userSpaceOnUse">
<stop stop-color="white"/>
<stop offset="1" stop-color="white"/>
</linearGradient>
<linearGradient id="paint1_linear_149_3494" x1="113.547" y1="102.547" x2="159.532" y2="148.529" gradientUnits="userSpaceOnUse">
<stop stop-color="#EEEEEE"/>
<stop offset="0.580104" stop-color="#E2E2E1"/>
<stop offset="1" stop-color="white"/>
</linearGradient>
<linearGradient id="paint2_linear_149_3494" x1="183.672" y1="95.6328" x2="183.672" y2="135.359" gradientUnits="userSpaceOnUse">
<stop stop-color="#CFCFCF"/>
<stop offset="1" stop-color="white"/>
</linearGradient>
<linearGradient id="paint3_linear_149_3494" x1="183.672" y1="110.387" x2="183.672" y2="182.329" gradientUnits="userSpaceOnUse">
<stop stop-color="#A9A9A9"/>
<stop offset="0.520465" stop-color="#F8F8F8"/>
<stop offset="1" stop-color="white"/>
</linearGradient>
</defs>
</svg>
