<svg width="90" height="84" viewBox="0 0 90 84" fill="none" xmlns="http://www.w3.org/2000/svg">
<rect x="0.055542" y="5.93018" width="24.4798" height="77.6189" rx="12.2399" fill="white"/>
<g style="mix-blend-mode:overlay">
<path d="M10.0063 61.7559C3.32043 64.8808 0.91756 71.8397 0.652196 75.0904C0.572587 74.9312 0.453173 74.3938 0.353662 73.9958L0.25415 73.5977V72.6026L2.94096 63.2486L11.4989 51.9043L24.5349 40.958V49.317C19.8579 56.4818 19.1613 57.4769 10.0063 61.7559Z" fill="black" fill-opacity="0.3"/>
</g>
<rect x="74.9822" width="24.4798" height="61.9692" rx="12.2399" transform="rotate(52.5213 74.9822 0)" fill="url(#paint0_linear_49_720)"/>
<path opacity="0.17" d="M58.7668 43.2467C51.4427 40.54 45.6644 29.3151 43.641 24.041L42.4469 24.9366L41.9493 25.4342L46.4274 38.5697L57.1746 44.5404L58.7668 43.2467Z" fill="black" fill-opacity="0.4"/>
<path fill-rule="evenodd" clip-rule="evenodd" d="M42.4569 24.9199C44.4125 30.2953 50.2232 40.9572 57.8431 44.0442L50.413 49.7411C47.9044 51.6645 44.8888 52.4667 41.9683 52.2271C39.3745 52.2241 36.7611 51.4 34.5438 49.6999L24.535 42.0258V43.1312C23.3198 47.7808 19.6103 56.3518 12.7927 59.1237C5.54206 62.0718 1.60883 67.508 0.328989 73.9508C0.149627 73.117 0.0551953 72.2517 0.0551953 71.3643V18.3307C-0.226969 15.3612 0.569065 12.2819 2.52718 9.72802C6.64036 4.36349 14.3236 3.34907 19.6881 7.46224L42.4569 24.9199Z" fill="url(#paint1_linear_49_720)"/>
<rect x="60.5581" y="4.93506" width="24.4798" height="78.614" rx="12.2399" fill="url(#paint2_linear_49_720)"/>
<g style="mix-blend-mode:overlay">
<path fill-rule="evenodd" clip-rule="evenodd" d="M60.5581 16.3257C62.3276 20.147 67.429 28.0853 75.3853 32.599C82.1854 36.4567 84.5281 43.04 85.0379 46.7579V69.318C85.0379 76.0779 79.5579 81.5579 72.798 81.5579C66.0381 81.5579 60.5581 76.0779 60.5581 69.318V16.3257Z" fill="black" fill-opacity="0.3"/>
</g>
<path fill-rule="evenodd" clip-rule="evenodd" d="M60.5581 18.3149C62.3276 22.1362 67.429 30.0746 75.3853 34.5882C82.1854 38.446 84.5281 43.5524 85.0379 46.7426V71.3091C85.0379 78.069 79.5579 83.549 72.798 83.549C66.0381 83.549 60.5581 78.069 60.5581 71.3091V18.3149Z" fill="url(#paint3_linear_49_720)"/>
<defs>
<linearGradient id="paint0_linear_49_720" x1="87.2221" y1="0" x2="88.2839" y2="47.1839" gradientUnits="userSpaceOnUse">
<stop stop-color="white"/>
<stop offset="1" stop-color="white"/>
</linearGradient>
<linearGradient id="paint1_linear_49_720" x1="9.21024" y1="11.2043" x2="50.9055" y2="52.8995" gradientUnits="userSpaceOnUse">
<stop stop-color="#EEEEEE"/>
<stop offset="0.580104" stop-color="#E2E2E1"/>
<stop offset="1" stop-color="white"/>
</linearGradient>
<linearGradient id="paint2_linear_49_720" x1="72.798" y1="4.93506" x2="72.798" y2="40.9582" gradientUnits="userSpaceOnUse">
<stop stop-color="#CFCFCF"/>
<stop offset="1" stop-color="white"/>
</linearGradient>
<linearGradient id="paint3_linear_49_720" x1="72.798" y1="18.3149" x2="72.798" y2="83.549" gradientUnits="userSpaceOnUse">
<stop stop-color="#A9A9A9"/>
<stop offset="0.520465" stop-color="#F8F8F8"/>
<stop offset="1" stop-color="white"/>
</linearGradient>
</defs>
</svg>
