<svg width="20" height="20" viewBox="0 0 20 20" fill="none" xmlns="http://www.w3.org/2000/svg">
<path d="M17.29 12.6374V7.71903V7.50753L12.8284 3.01423L12.8284 3.01422C11.4951 1.67141 10.8284 1 10 1C9.17157 1 8.50491 1.67141 7.17157 3.01423L2.70999 7.50755V7.71903V12.6374C2.70999 15.5321 4.68841 18.046 7.48673 18.7071C9.1398 19.0976 10.8602 19.0976 12.5132 18.7071C15.3116 18.046 17.29 15.5321 17.29 12.6374Z" fill="white" fill-opacity="0.15"/>
<path d="M12.5132 18.7071L12.3408 17.9772H12.3408L12.5132 18.7071ZM7.48673 18.7071L7.65916 17.9772H7.65916L7.48673 18.7071ZM12.8284 3.01423L13.3606 2.48578L13.3421 2.46712L13.3223 2.4498L12.8284 3.01423ZM12.8284 3.01422L12.2962 3.54267L12.3147 3.56133L12.3345 3.57866L12.8284 3.01422ZM7.17157 3.01423L7.70378 3.54267L7.17157 3.01423ZM7.71842 16.3203L6.9813 16.1819L6.9813 16.1819L7.71842 16.3203ZM7.73776 16.2173L8.47489 16.3556L8.47489 16.3556L7.73776 16.2173ZM12.2622 16.2173L11.5251 16.3556V16.3556L12.2622 16.2173ZM12.2816 16.3203L13.0187 16.1819V16.1819L12.2816 16.3203ZM11.9918 18.5519L12.669 18.8742L11.9918 18.5519ZM11.1978 18.475C11.0198 18.849 11.1787 19.2965 11.5527 19.4745C11.9267 19.6525 12.3742 19.4936 12.5522 19.1196L11.1978 18.475ZM8.00822 18.5519L7.331 18.8742L7.331 18.8742L8.00822 18.5519ZM7.44778 19.1196C7.62577 19.4936 8.07327 19.6525 8.44729 19.4745C8.82131 19.2965 8.98022 18.849 8.80222 18.475L7.44778 19.1196ZM9.36106 14.4426L9.16053 13.7199H9.16053L9.36106 14.4426ZM10.6389 14.4426L10.8395 13.7199H10.8395L10.6389 14.4426ZM0.467794 8.70126C0.17594 8.99519 0.177623 9.47006 0.471553 9.76191C0.765482 10.0538 1.24035 10.0521 1.53221 9.75815L0.467794 8.70126ZM18.4678 9.75815C18.7596 10.0521 19.2345 10.0538 19.5284 9.76191C19.8224 9.47006 19.8241 8.99519 19.5322 8.70126L18.4678 9.75815ZM16.54 7.71903V12.6374H18.04V7.71903H16.54ZM3.45999 12.6374V7.71903H1.95999V12.6374H3.45999ZM12.3408 17.9772C10.8011 18.3409 9.19884 18.3409 7.65916 17.9772L7.3143 19.437C9.08076 19.8543 10.9192 19.8543 12.6857 19.437L12.3408 17.9772ZM7.65916 17.9772C5.2026 17.3969 3.45999 15.1877 3.45999 12.6374H1.95999C1.95999 15.8765 4.17421 18.6952 7.3143 19.437L7.65916 17.9772ZM12.6857 19.437C15.8258 18.6952 18.04 15.8765 18.04 12.6374H16.54C16.54 15.1877 14.7974 17.3969 12.3408 17.9772L12.6857 19.437ZM13.3223 2.4498L13.3223 2.44979L12.3345 3.57866L12.3345 3.57866L13.3223 2.4498ZM13.3606 2.48578C12.7089 1.82945 12.1681 1.28246 11.6818 0.90885C11.1785 0.522114 10.6458 0.25 10 0.25V1.75C10.1827 1.75 10.3974 1.81359 10.7679 2.09826C11.1555 2.39606 11.6146 2.85618 12.2962 3.54267L13.3606 2.48578ZM7.70378 3.54267C8.38542 2.85618 8.84454 2.39606 9.2321 2.09826C9.60257 1.81359 9.81734 1.75 10 1.75V0.25C9.35423 0.25 8.82145 0.522114 8.31815 0.908851C7.83194 1.28246 7.29106 1.82945 6.63937 2.48578L7.70378 3.54267ZM8.45555 16.4587L8.47489 16.3556L7.00064 16.0789L6.9813 16.1819L8.45555 16.4587ZM11.5251 16.3556L11.5445 16.4587L13.0187 16.1819L12.9994 16.0789L11.5251 16.3556ZM11.3146 18.2296L11.1978 18.475L12.5522 19.1196L12.669 18.8742L11.3146 18.2296ZM7.331 18.8742L7.44778 19.1196L8.80222 18.475L8.68545 18.2296L7.331 18.8742ZM11.5445 16.4587C11.6571 17.0588 11.5764 17.6793 11.3146 18.2296L12.669 18.8742C13.0675 18.0369 13.1899 17.0937 13.0187 16.1819L11.5445 16.4587ZM6.9813 16.1819C6.81015 17.0937 6.93254 18.0369 7.331 18.8742L8.68545 18.2296C8.42358 17.6793 8.3429 17.0588 8.45555 16.4587L6.9813 16.1819ZM9.56158 15.1652C9.84855 15.0856 10.1515 15.0856 10.4384 15.1652L10.8395 13.7199C10.2901 13.5674 9.70991 13.5674 9.16053 13.7199L9.56158 15.1652ZM12.9994 16.0789C12.7865 14.9449 11.9504 14.0281 10.8395 13.7199L10.4384 15.1652C10.9935 15.3193 11.417 15.7794 11.5251 16.3556L12.9994 16.0789ZM8.47489 16.3556C8.58304 15.7794 9.00647 15.3193 9.56158 15.1652L9.16053 13.7199C8.04959 14.0281 7.21349 14.9449 7.00064 16.0789L8.47489 16.3556ZM6.63937 2.48578L2.17779 6.9791L3.2422 8.03599L7.70378 3.54267L6.63937 2.48578ZM2.17779 6.9791L0.467794 8.70126L1.53221 9.75815L3.2422 8.03599L2.17779 6.9791ZM3.45999 7.71903V7.50755H1.95999V7.71903H3.45999ZM12.2962 3.54267L16.7578 8.03598L17.8222 6.97908L13.3606 2.48578L12.2962 3.54267ZM16.7578 8.03598L18.4678 9.75815L19.5322 8.70126L17.8222 6.97908L16.7578 8.03598ZM18.04 7.71903V7.50753H16.54V7.71903H18.04Z" fill="#231F20"/>
</svg>
