<svg width="88" height="88" viewBox="0 0 88 88" fill="none" xmlns="http://www.w3.org/2000/svg">
<g filter="url(#filter0_d_659_490)">
<circle cx="44" cy="40" r="30" fill="url(#paint0_linear_659_490)"/>
</g>
<path d="M44.8768 44.1682C45.0292 43.7535 45.6375 43.7535 45.7899 44.1682L46.2066 45.3023C46.2554 45.435 46.3637 45.5395 46.5013 45.5865L47.6774 45.9884C48.1075 46.1353 48.1075 46.7218 47.6774 46.8688L46.5013 47.2706C46.3637 47.3177 46.2554 47.4221 46.2066 47.5549L45.7899 48.6889C45.6375 49.1037 45.0292 49.1037 44.8768 48.6889L44.4601 47.5549C44.4113 47.4221 44.303 47.3177 44.1653 47.2706L42.9892 46.8688C42.5591 46.7218 42.5591 46.1353 42.9892 45.9884L44.1653 45.5865C44.303 45.5395 44.4113 45.435 44.4601 45.3023L44.8768 44.1682Z" fill="white" fill-opacity="0.15"/>
<path d="M46.6394 31.4728C46.8711 30.8424 47.7956 30.8424 48.0272 31.4728L48.8211 33.6333C48.8953 33.8351 49.0599 33.9938 49.2691 34.0653L51.5097 34.8309C52.1634 35.0543 52.1634 35.9457 51.5097 36.1691L49.2691 36.9347C49.0599 37.0062 48.8953 37.1649 48.8211 37.3667L48.0272 39.5272C47.7956 40.1576 46.8711 40.1576 46.6394 39.5272L45.8455 37.3667C45.7714 37.1649 45.6068 37.0062 45.3975 36.9347L43.157 36.1691C42.5032 35.9457 42.5032 35.0543 43.157 34.8309L45.3975 34.0653C45.6068 33.9938 45.7714 33.8351 45.8455 33.6333L46.6394 31.4728Z" fill="white" fill-opacity="0.15"/>
<path d="M38.4864 37.3629C38.6579 36.879 39.3421 36.879 39.5136 37.3629L39.9824 38.686C40.0373 38.8409 40.1591 38.9627 40.314 39.0176L41.6371 39.4864C42.121 39.6579 42.121 40.3421 41.6371 40.5136L40.314 40.9824C40.1591 41.0373 40.0373 41.1591 39.9824 41.314L39.5136 42.6371C39.3421 43.121 38.6579 43.121 38.4864 42.6371L38.0176 41.314C37.9627 41.1591 37.8409 41.0373 37.686 40.9824L36.3629 40.5136C35.879 40.3421 35.879 39.6579 36.3629 39.4864L37.686 39.0176C37.8409 38.9627 37.9627 38.8409 38.0176 38.686L38.4864 37.3629Z" fill="white" fill-opacity="0.15"/>
<path d="M44.8768 44.1682C45.0292 43.7535 45.6375 43.7535 45.7899 44.1682L46.2066 45.3023C46.2554 45.435 46.3637 45.5395 46.5013 45.5865L47.6774 45.9884C48.1075 46.1353 48.1075 46.7218 47.6774 46.8688L46.5013 47.2706C46.3637 47.3177 46.2554 47.4221 46.2066 47.5549L45.7899 48.6889C45.6375 49.1037 45.0292 49.1037 44.8768 48.6889L44.4601 47.5549C44.4113 47.4221 44.303 47.3177 44.1653 47.2706L42.9892 46.8688C42.5591 46.7218 42.5591 46.1353 42.9892 45.9884L44.1653 45.5865C44.303 45.5395 44.4113 45.435 44.4601 45.3023L44.8768 44.1682Z" stroke="white" stroke-width="1.5" stroke-linejoin="round"/>
<path d="M46.6394 31.4728C46.8711 30.8424 47.7956 30.8424 48.0272 31.4728L48.8211 33.6333C48.8953 33.8351 49.0599 33.9938 49.2691 34.0653L51.5097 34.8309C52.1634 35.0543 52.1634 35.9457 51.5097 36.1691L49.2691 36.9347C49.0599 37.0062 48.8953 37.1649 48.8211 37.3667L48.0272 39.5272C47.7956 40.1576 46.8711 40.1576 46.6394 39.5272L45.8455 37.3667C45.7714 37.1649 45.6068 37.0062 45.3975 36.9347L43.157 36.1691C42.5032 35.9457 42.5032 35.0543 43.157 34.8309L45.3975 34.0653C45.6068 33.9938 45.7714 33.8351 45.8455 33.6333L46.6394 31.4728Z" stroke="white" stroke-width="1.5" stroke-linejoin="round"/>
<path d="M38.4864 37.3629C38.6579 36.879 39.3421 36.879 39.5136 37.3629L39.9824 38.686C40.0373 38.8409 40.1591 38.9627 40.314 39.0176L41.6371 39.4864C42.121 39.6579 42.121 40.3421 41.6371 40.5136L40.314 40.9824C40.1591 41.0373 40.0373 41.1591 39.9824 41.314L39.5136 42.6371C39.3421 43.121 38.6579 43.121 38.4864 42.6371L38.0176 41.314C37.9627 41.1591 37.8409 41.0373 37.686 40.9824L36.3629 40.5136C35.879 40.3421 35.879 39.6579 36.3629 39.4864L37.686 39.0176C37.8409 38.9627 37.9627 38.8409 38.0176 38.686L38.4864 37.3629Z" stroke="white" stroke-width="1.5" stroke-linejoin="round"/>
<defs>
<filter id="filter0_d_659_490" x="0" y="0" width="88" height="88" filterUnits="userSpaceOnUse" color-interpolation-filters="sRGB">
<feFlood flood-opacity="0" result="BackgroundImageFix"/>
<feColorMatrix in="SourceAlpha" type="matrix" values="0 0 0 0 0 0 0 0 0 0 0 0 0 0 0 0 0 0 127 0" result="hardAlpha"/>
<feOffset dy="4"/>
<feGaussianBlur stdDeviation="7"/>
<feComposite in2="hardAlpha" operator="out"/>
<feColorMatrix type="matrix" values="0 0 0 0 1 0 0 0 0 0.466667 0 0 0 0 0.541176 0 0 0 0.8 0"/>
<feBlend mode="normal" in2="BackgroundImageFix" result="effect1_dropShadow_659_490"/>
<feBlend mode="normal" in="SourceGraphic" in2="effect1_dropShadow_659_490" result="shape"/>
</filter>
<linearGradient id="paint0_linear_659_490" x1="44" y1="70" x2="44" y2="10" gradientUnits="userSpaceOnUse">
<stop stop-color="#FD3A84"/>
<stop offset="1" stop-color="#FFA68D"/>
</linearGradient>
</defs>
</svg>
