<svg width="76" height="83" viewBox="0 0 76 83" fill="none" xmlns="http://www.w3.org/2000/svg">
<path fill-rule="evenodd" clip-rule="evenodd" d="M14.0024 9.89949L15.7192 10.1736L17.4868 10.6724L52.7251 23.4832L54.2672 24.1124L55.7476 24.9111L57.1551 25.8619L58.4781 26.9477L59.7053 28.152L60.8246 29.4587L61.8238 30.852L62.6902 32.3165L63.4108 33.8367L63.9719 35.3974L64.3592 36.983L64.5579 38.5784L65.1855 73.373L65.1855 73.374L64.9741 75.0643L64.5579 76.6279L63.9475 78.051L63.1537 79.3192L62.1878 80.4174L61.0613 81.3298L59.7859 82.0406L58.3747 82.5329L56.8404 82.7903L55.1976 82.7958L53.4608 82.5327L14.5267 74.2306L12.6243 73.7909L10.6232 72.9333L8.71034 71.6911L6.99809 70.3995L5.43435 68.9249L4.03965 67.2922L2.83382 65.5271L1.83593 63.6555L1.06418 61.7039L0.535757 59.6989L0.266602 57.6662L0.271833 55.6324L3.36384 18.1673L3.61201 16.5364L4.09473 15.0649L4.79135 13.761L5.68143 12.6321L6.74495 11.6853L7.96235 10.927L9.31472 10.3634L10.7838 10.0003L12.3519 9.84375L14.0024 9.89949ZM65.1855 73.373L64.5579 38.5784L65.1814 71.5699L65.1855 73.373Z" fill="url(#paint0_linear_150_3403)" fill-opacity="0.5"/>
<path fill-rule="evenodd" clip-rule="evenodd" d="M11.1267 6.69297L10.8785 8.32388L7.94446 48.7361L7.93922 50.7699L8.20831 52.8024L8.73679 54.8076L9.50855 56.7592L10.5064 58.6308L11.7123 60.3959L13.107 62.0286L14.6707 63.5032L16.3829 64.7948L18.2227 65.8792L20.1684 66.7329L22.1984 67.3341L63.8366 76.765L65.5733 77.0281L67.2162 77.0227L68.7503 76.7653L70.1616 76.273L68.7564 77.1058L67.486 77.814L66.1436 78.6104L67.4854 77.8144L67.486 77.814L68.7564 77.1058L70.1616 76.273L71.437 75.5622L68.7577 77.1051L68.757 77.1055L68.7564 77.1058L67.486 77.814L66.1436 78.6104L63.5941 80.0785L61.1064 81.511L59.8491 82.2125L58.4643 82.7052L56.965 82.9732L55.3655 83.0001L53.6805 82.7699L13.5024 74.2793L11.5536 73.7315L9.69043 72.9403L7.93335 71.9266L6.30245 70.7126L4.81747 69.321L3.49764 67.7753L2.36158 66.0996L1.42716 64.3185L0.711483 62.4569L0.230701 60.5395L0 58.5912L0.0335106 56.6366L3.44074 17.5758L3.70449 15.9896L4.19318 14.5525L6.67391 11.0194L7.55576 9.90122L9.38975 7.58855L11.2691 5.21874L13.1943 2.79102L12.306 3.91755L11.6094 5.22146L11.1267 6.69297Z" fill="url(#paint1_linear_150_3403)"/>
<g filter="url(#filter0_b_150_3403)">
<path fill-rule="evenodd" clip-rule="evenodd" d="M21.5173 0.055737L23.2341 0.32986L25.0017 0.828697L61.3997 13.3149L62.9419 13.9441L64.4223 14.7428L65.8297 15.6936L67.1528 16.7794L68.38 17.9837L69.4992 19.2904L70.4984 20.6838L71.3649 22.1482L72.0855 23.6685L72.6466 25.2291L73.0339 26.8147L73.2325 28.4101L75.5615 67.605L75.5616 67.606L75.3502 69.2963L74.9339 70.8599L74.3235 72.283L73.5298 73.5512L72.5639 74.6494L71.4374 75.5618L70.1619 76.2726L68.7508 76.7649L67.2164 77.0223L65.5737 77.0277L63.8368 76.7647L22.1995 67.3339L20.2972 66.8942L18.2961 66.0366L16.3832 64.7945L14.6709 63.5029L13.1072 62.0283L11.7125 60.3956L10.5067 58.6304L9.50878 56.7589L8.73703 54.8073L8.20861 52.8023L7.93945 50.7695L7.94469 48.7358L10.8787 8.32355L11.1269 6.69264L11.6096 5.22113L12.3063 3.91721L13.1963 2.78837L14.2598 1.84157L15.4773 1.08327L16.8296 0.519637L18.2987 0.156591L19.8668 0L21.5173 0.055737ZM75.5615 67.605L73.2325 28.4101L75.5575 65.8019L75.5615 67.605Z" fill="url(#paint2_linear_150_3403)" fill-opacity="0.3"/>
<path d="M75.2945 67.5973L75.0884 69.2454L74.6818 70.7727L74.0871 72.1592L73.3157 73.3917L72.3789 74.4568L71.2878 75.3406L70.0526 76.029L68.6845 76.5063L67.1938 76.7563L65.5933 76.7616L63.8862 76.5031L22.2594 67.0747L22.2583 67.0744L20.3802 66.6404L18.4219 65.8011L16.536 64.5765L14.8428 63.2993L13.3002 61.8445L11.9241 60.2337L10.7346 58.4924L9.75065 56.647L8.99027 54.7242L8.47016 52.7507L8.20556 50.7523L8.21072 48.7458L11.1433 8.35324L11.3866 6.75455L11.8552 5.32607L12.5298 4.06341L13.3908 2.97151L14.4198 2.05539L15.5996 1.32053L16.9132 0.773047L18.344 0.419445L19.8756 0.266509L21.4918 0.321087L23.1768 0.590142L24.9223 1.08275L61.3063 13.5641L62.8281 14.185L64.2843 14.9707L65.6705 15.9072L66.9749 16.9776L68.1854 18.1655L69.2897 19.4547L70.2754 20.8293L71.1297 22.2732L71.8395 23.7707L72.3914 25.3059L72.7717 26.8629L72.9675 28.4344L75.2945 67.5973Z" stroke="url(#paint3_linear_150_3403)" stroke-width="0.532122"/>
</g>
<g filter="url(#filter1_d_150_3403)">
<path fill-rule="evenodd" clip-rule="evenodd" d="M54.016 59.385C53.2004 59.7626 52.3249 60.0103 51.421 60.1138C49.6535 60.3162 47.8672 59.9569 46.3154 59.0869C44.7635 58.2169 43.5251 56.8804 42.7756 55.2669C42.0262 53.6534 41.8038 51.8449 42.1401 50.0979C42.4481 48.4977 43.2104 47.0235 44.3315 45.8495C43.5095 46.23 42.7489 46.7423 42.0815 47.3711C40.7867 48.5911 39.9089 50.1879 39.5727 51.9348C39.2364 53.6818 39.4588 55.4903 40.2083 57.1038C40.9577 58.7173 42.1962 60.0538 43.748 60.9238C45.2998 61.7938 47.0861 62.1531 48.8536 61.9507C50.6211 61.7483 52.28 60.9946 53.595 59.7963C53.7404 59.6638 53.8808 59.5266 54.016 59.385ZM52.4504 43.4666L53.944 36.2666C53.9927 36.034 53.9902 35.7935 53.9366 35.562C53.8831 35.3304 53.7798 35.1132 53.634 34.9255C53.4882 34.7378 53.3034 34.584 53.0922 34.4749C52.8811 34.3657 52.6487 34.3038 52.4113 34.2933L36.9332 33.5662L37.0509 32.9986C37.1301 32.6153 37.3439 32.273 37.6536 32.0336C37.9633 31.7942 38.3484 31.6736 38.7393 31.6935L54.9786 32.4564C55.2161 32.4669 55.4485 32.5288 55.6596 32.638C55.8707 32.7471 56.0556 32.9009 56.2014 33.0886C56.3472 33.2763 56.4505 33.4935 56.504 33.725C56.5575 33.9566 56.5601 34.1971 56.5114 34.4297L54.4758 44.2426C53.8329 43.8961 53.1519 43.6364 52.4504 43.4666ZM33.4064 21.9472C32.8277 22.1204 32.2818 22.4011 31.7991 22.7795C30.8924 23.4902 30.2672 24.4994 30.0346 25.6277L26.5794 42.2832C27.2819 42.4387 27.9659 42.6839 28.6138 43.0159L32.602 23.7908C32.7399 23.122 33.0157 22.495 33.4064 21.9472ZM18.6148 44.7052C17.7517 45.1051 16.9567 45.6497 16.2666 46.321C14.9949 47.5579 14.1432 49.1626 13.8313 50.909C13.5194 52.6554 13.7631 54.4557 14.5281 56.0563C15.2931 57.657 16.5408 58.9774 18.0956 59.8317C19.6504 60.686 21.4339 61.0312 23.1952 60.8187C24.9565 60.6062 26.6068 59.8466 27.9137 58.6469C28.0507 58.5212 28.1832 58.3912 28.3111 58.2573C27.5096 58.6286 26.6502 58.8747 25.7626 58.9818C24.0013 59.1943 22.2177 58.8491 20.663 57.9948C19.1082 57.1405 17.8605 55.82 17.0955 54.2194C16.3305 52.6187 16.0868 50.8185 16.3987 49.0721C16.6923 47.428 17.4643 45.9095 18.6148 44.7052Z" fill="url(#paint4_linear_150_3403)"/>
<path fill-rule="evenodd" clip-rule="evenodd" d="M54.016 59.385C53.2004 59.7626 52.3249 60.0103 51.421 60.1138C49.6535 60.3162 47.8672 59.9569 46.3154 59.0869C44.7635 58.2169 43.5251 56.8804 42.7756 55.2669C42.0262 53.6534 41.8038 51.8449 42.1401 50.0979C42.4481 48.4977 43.2104 47.0235 44.3315 45.8495C43.5095 46.23 42.7489 46.7423 42.0815 47.3711C40.7867 48.5911 39.9089 50.1879 39.5727 51.9348C39.2364 53.6818 39.4588 55.4903 40.2083 57.1038C40.9577 58.7173 42.1962 60.0538 43.748 60.9238C45.2998 61.7938 47.0861 62.1531 48.8536 61.9507C50.6211 61.7483 52.28 60.9946 53.595 59.7963C53.7404 59.6638 53.8808 59.5266 54.016 59.385ZM52.4504 43.4666L53.944 36.2666C53.9927 36.034 53.9902 35.7935 53.9366 35.562C53.8831 35.3304 53.7798 35.1132 53.634 34.9255C53.4882 34.7378 53.3034 34.584 53.0922 34.4749C52.8811 34.3657 52.6487 34.3038 52.4113 34.2933L36.9332 33.5662L37.0509 32.9986C37.1301 32.6153 37.3439 32.273 37.6536 32.0336C37.9633 31.7942 38.3484 31.6736 38.7393 31.6935L54.9786 32.4564C55.2161 32.4669 55.4485 32.5288 55.6596 32.638C55.8707 32.7471 56.0556 32.9009 56.2014 33.0886C56.3472 33.2763 56.4505 33.4935 56.504 33.725C56.5575 33.9566 56.5601 34.1971 56.5114 34.4297L54.4758 44.2426C53.8329 43.8961 53.1519 43.6364 52.4504 43.4666ZM33.4064 21.9472C32.8277 22.1204 32.2818 22.4011 31.7991 22.7795C30.8924 23.4902 30.2672 24.4994 30.0346 25.6277L26.5794 42.2832C27.2819 42.4387 27.9659 42.6839 28.6138 43.0159L32.602 23.7908C32.7399 23.122 33.0157 22.495 33.4064 21.9472ZM18.6148 44.7052C17.7517 45.1051 16.9567 45.6497 16.2666 46.321C14.9949 47.5579 14.1432 49.1626 13.8313 50.909C13.5194 52.6554 13.7631 54.4557 14.5281 56.0563C15.2931 57.657 16.5408 58.9774 18.0956 59.8317C19.6504 60.686 21.4339 61.0312 23.1952 60.8187C24.9565 60.6062 26.6068 59.8466 27.9137 58.6469C28.0507 58.5212 28.1832 58.3912 28.3111 58.2573C27.5096 58.6286 26.6502 58.8747 25.7626 58.9818C24.0013 59.1943 22.2177 58.8491 20.663 57.9948C19.1082 57.1405 17.8605 55.82 17.0955 54.2194C16.3305 52.6187 16.0868 50.8185 16.3987 49.0721C16.6923 47.428 17.4643 45.9095 18.6148 44.7052Z" fill="url(#paint5_linear_150_3403)"/>
<path d="M64.3249 26.5455L58.7459 53.4386C58.3806 55.1798 57.4763 56.7616 56.1613 57.9599C54.8464 59.1582 53.1875 59.912 51.42 60.1144C49.6525 60.3167 47.8661 59.9575 46.3143 59.0875C44.7625 58.2175 43.5241 56.8809 42.7746 55.2674C42.0252 53.6539 41.8028 51.8454 42.139 50.0985C42.4753 48.3515 43.3531 46.7547 44.6479 45.5347C45.9427 44.3147 47.5888 43.5333 49.3527 43.3015C51.1165 43.0697 52.9086 43.3991 54.4747 44.2431L56.5104 34.4303C56.559 34.1976 56.5565 33.9572 56.503 33.7256C56.4495 33.494 56.3462 33.2768 56.2004 33.0891C56.0546 32.9014 55.8697 32.7476 55.6586 32.6385C55.4474 32.5293 55.2151 32.4674 54.9776 32.457L38.7383 31.694C38.3474 31.6741 37.9623 31.7948 37.6526 32.0341C37.3429 32.2735 37.1291 32.6158 37.0499 32.9991L33.047 52.2949C32.6848 54.0316 31.787 55.6109 30.48 56.8106C29.1731 58.0102 27.5228 58.7698 25.7616 58.9823C24.0003 59.1948 22.2167 58.8497 20.6619 57.9953C19.1071 57.141 17.8594 55.8206 17.0945 54.2199C16.3295 52.6193 16.0858 50.819 16.3977 49.0726C16.7095 47.3262 17.5613 45.7215 18.833 44.4846C20.1047 43.2476 21.7323 42.4407 23.4867 42.1773C25.2411 41.9139 27.0339 42.2074 28.6127 43.0164L32.601 23.7914C32.8336 22.6631 33.4588 21.6538 34.3655 20.9431C35.2721 20.2325 36.4015 19.8664 37.5527 19.91L59.701 20.6695C60.4129 20.6933 61.1109 20.8723 61.7463 21.1941C62.3816 21.5158 62.939 21.9725 63.3795 22.5322C63.8199 23.0919 64.1327 23.7411 64.296 24.4343C64.4593 25.1276 64.4692 25.8481 64.3249 26.5455Z" fill="url(#paint6_linear_150_3403)"/>
</g>
<defs>
<filter id="filter0_b_150_3403" x="1.02186" y="-6.91759" width="81.4573" height="90.8625" filterUnits="userSpaceOnUse" color-interpolation-filters="sRGB">
<feFlood flood-opacity="0" result="BackgroundImageFix"/>
<feGaussianBlur in="BackgroundImageFix" stdDeviation="3.4588"/>
<feComposite in2="SourceAlpha" operator="in" result="effect1_backgroundBlur_150_3403"/>
<feBlend mode="normal" in="SourceGraphic" in2="effect1_backgroundBlur_150_3403" result="shape"/>
</filter>
<filter id="filter1_d_150_3403" x="5.92479" y="17.7467" width="62.8201" height="54.1932" filterUnits="userSpaceOnUse" color-interpolation-filters="sRGB">
<feFlood flood-opacity="0" result="BackgroundImageFix"/>
<feColorMatrix in="SourceAlpha" type="matrix" values="0 0 0 0 0 0 0 0 0 0 0 0 0 0 0 0 0 0 127 0" result="hardAlpha"/>
<feOffset dx="-1.72765" dy="3.88722"/>
<feGaussianBlur stdDeviation="3.02339"/>
<feComposite in2="hardAlpha" operator="out"/>
<feColorMatrix type="matrix" values="0 0 0 0 0.103333 0 0 0 0 0.4104 0 0 0 0 0.43 0 0 0 0.25 0"/>
<feBlend mode="normal" in2="BackgroundImageFix" result="effect1_dropShadow_150_3403"/>
<feBlend mode="normal" in="SourceGraphic" in2="effect1_dropShadow_150_3403" result="shape"/>
</filter>
<linearGradient id="paint0_linear_150_3403" x1="2.14955" y1="87.3761" x2="61.5118" y2="15.2346" gradientUnits="userSpaceOnUse">
<stop offset="0.320833" stop-color="#C0EEF1"/>
<stop offset="0.58125" stop-color="#8FC3D0"/>
<stop offset="0.89375" stop-color="#2A9FAF" stop-opacity="0.79"/>
</linearGradient>
<linearGradient id="paint1_linear_150_3403" x1="-17.5441" y1="13.6613" x2="65.4731" y2="96.5686" gradientUnits="userSpaceOnUse">
<stop stop-color="#CBF3FF"/>
<stop offset="0.35896" stop-color="#39B8C9"/>
<stop offset="0.683604" stop-color="#089EB3"/>
<stop offset="1" stop-color="#68A4B7"/>
</linearGradient>
<linearGradient id="paint2_linear_150_3403" x1="10.0885" y1="79.9269" x2="69.4507" y2="7.78541" gradientUnits="userSpaceOnUse">
<stop offset="0.320833" stop-color="#A2F4FF"/>
<stop offset="0.685417" stop-color="#68D3E9" stop-opacity="0.9405"/>
<stop offset="0.89375" stop-color="#009BB0" stop-opacity="0.79"/>
</linearGradient>
<linearGradient id="paint3_linear_150_3403" x1="7.8177" y1="69.6052" x2="73.5079" y2="14.496" gradientUnits="userSpaceOnUse">
<stop offset="0.180663" stop-color="white" stop-opacity="0.35"/>
<stop offset="0.533255" stop-color="white" stop-opacity="0"/>
</linearGradient>
<linearGradient id="paint4_linear_150_3403" x1="26.7517" y1="76.0872" x2="83.5846" y2="39.3158" gradientUnits="userSpaceOnUse">
<stop stop-color="white"/>
<stop offset="0.644664" stop-color="white" stop-opacity="0.57"/>
</linearGradient>
<linearGradient id="paint5_linear_150_3403" x1="26.0596" y1="-17.7795" x2="10.067" y2="68.9717" gradientUnits="userSpaceOnUse">
<stop offset="0.301696" stop-color="#C5E7EE"/>
<stop offset="0.993284" stop-color="#7FB8C0" stop-opacity="0.63"/>
</linearGradient>
<linearGradient id="paint6_linear_150_3403" x1="29.318" y1="74.251" x2="86.1511" y2="37.4805" gradientUnits="userSpaceOnUse">
<stop stop-color="white"/>
<stop offset="0.644664" stop-color="white" stop-opacity="0.57"/>
</linearGradient>
</defs>
</svg>
