<svg width="48" height="48" viewBox="0 0 48 48" fill="none" xmlns="http://www.w3.org/2000/svg">
<path d="M43.7812 0H4.21875C1.89244 0 0 1.89244 0 4.21875V43.7812C0 46.1076 1.89244 48 4.21875 48H43.7812C46.1076 48 48 46.1076 48 43.7812V4.21875C48 1.89244 46.1076 0 43.7812 0Z" fill="url(#paint0_linear_150_2420)"/>
<path d="M29.625 28.2188H24C23.2227 28.2188 22.5938 28.8477 22.5938 29.625V35.25C22.5938 36.0273 23.2227 36.6562 24 36.6562H28.2188V38.0625C28.2188 38.8384 27.5884 39.4688 26.8125 39.4688C26.0352 39.4688 25.4062 40.0977 25.4062 40.875C25.4062 41.6523 26.0352 42.2812 26.8125 42.2812C29.1388 42.2812 31.0312 40.3888 31.0312 38.0625C31.0312 37.6621 31.0312 29.9982 31.0312 29.625C31.0312 28.8477 30.4023 28.2188 29.625 28.2188ZM40.875 28.2188H35.25C34.4727 28.2188 33.8438 28.8477 33.8438 29.625V35.25C33.8438 36.0273 34.4727 36.6562 35.25 36.6562H39.4688V38.0625C39.4688 38.8384 38.8384 39.4688 38.0625 39.4688C37.2852 39.4688 36.6562 40.0977 36.6562 40.875C36.6562 41.6523 37.2852 42.2812 38.0625 42.2812C40.3888 42.2812 42.2812 40.3888 42.2812 38.0625C42.2812 37.6621 42.2812 29.9982 42.2812 29.625C42.2812 28.8477 41.6523 28.2188 40.875 28.2188ZM18.375 19.7812H24C24.7773 19.7812 25.4062 19.1523 25.4062 18.375V12.75C25.4062 11.9727 24.7773 11.3438 24 11.3438H19.7812V9.9375C19.7812 9.16162 20.4116 8.53125 21.1875 8.53125C21.9648 8.53125 22.5938 7.90228 22.5938 7.125C22.5938 6.34772 21.9648 5.71875 21.1875 5.71875C18.8612 5.71875 16.9688 7.61119 16.9688 9.9375V18.375C16.9688 19.1523 17.5977 19.7812 18.375 19.7812ZM7.125 19.7812H12.75C13.5273 19.7812 14.1562 19.1523 14.1562 18.375V12.75C14.1562 11.9727 13.5273 11.3438 12.75 11.3438H8.53125V9.9375C8.53125 9.16162 9.16162 8.53125 9.9375 8.53125C10.7148 8.53125 11.3438 7.90228 11.3438 7.125C11.3438 6.34772 10.7148 5.71875 9.9375 5.71875C7.61119 5.71875 5.71875 7.61119 5.71875 9.9375V18.375C5.71875 19.1523 6.34772 19.7812 7.125 19.7812ZM29.625 14.1562H40.875C41.6523 14.1562 42.2812 13.5273 42.2812 12.75C42.2812 11.9727 41.6523 11.3438 40.875 11.3438H29.625C28.8477 11.3438 28.2188 11.9727 28.2188 12.75C28.2188 13.5273 28.8477 14.1562 29.625 14.1562ZM40.875 16.9688H29.625C28.8477 16.9688 28.2188 17.5977 28.2188 18.375C28.2188 19.1523 28.8477 19.7812 29.625 19.7812H40.875C41.6523 19.7812 42.2812 19.1523 42.2812 18.375C42.2812 17.5977 41.6523 16.9688 40.875 16.9688ZM18.375 28.2188H7.125C6.34772 28.2188 5.71875 28.8477 5.71875 29.625C5.71875 30.4023 6.34772 31.0312 7.125 31.0312H18.375C19.1523 31.0312 19.7812 30.4023 19.7812 29.625C19.7812 28.8477 19.1523 28.2188 18.375 28.2188ZM18.375 33.8438H7.125C6.34772 33.8438 5.71875 34.4727 5.71875 35.25C5.71875 36.0273 6.34772 36.6562 7.125 36.6562H18.375C19.1523 36.6562 19.7812 36.0273 19.7812 35.25C19.7812 34.4727 19.1523 33.8438 18.375 33.8438ZM40.875 22.5938H7.125C6.34772 22.5938 5.71875 23.2227 5.71875 24C5.71875 24.7773 6.34772 25.4062 7.125 25.4062H40.875C41.6523 25.4062 42.2812 24.7773 42.2812 24C42.2812 23.2227 41.6523 22.5938 40.875 22.5938Z" fill="url(#paint1_linear_150_2420)"/>
<defs>
<linearGradient id="paint0_linear_150_2420" x1="24" y1="48" x2="24" y2="0" gradientUnits="userSpaceOnUse">
<stop stop-color="#FD3A84"/>
<stop offset="1" stop-color="#FFA68D"/>
</linearGradient>
<linearGradient id="paint1_linear_150_2420" x1="24" y1="42.2812" x2="24" y2="5.71875" gradientUnits="userSpaceOnUse">
<stop stop-color="#FFC2CC"/>
<stop offset="1" stop-color="#FFF2F4"/>
</linearGradient>
</defs>
</svg>
