<svg width="48" height="48" viewBox="0 0 48 48" fill="none" xmlns="http://www.w3.org/2000/svg">
<path d="M43.8002 7.56773V33.2402C43.7965 34.9031 43.2692 36.5226 42.2932 37.869C41.3172 39.2153 39.942 40.2202 38.3628 40.741C36.7836 41.2618 35.0804 41.2721 33.495 40.7705C31.9096 40.2689 30.5223 39.2808 29.5301 37.9464C28.5378 36.612 27.9909 34.999 27.967 33.3363C27.943 31.6735 28.4433 30.0455 29.3967 28.6831C30.3501 27.3206 31.7083 26.293 33.2786 25.7459C34.8489 25.1988 36.5517 25.1601 38.1452 25.6352V16.2677C38.1456 16.0456 38.0976 15.826 38.0047 15.6242C37.9117 15.4224 37.776 15.2432 37.6069 15.0991C37.4378 14.955 37.2394 14.8494 37.0254 14.7896C36.8115 14.7298 36.587 14.7172 36.3677 14.7527L21.3602 17.1377C20.9987 17.1937 20.6691 17.3772 20.4311 17.6551C20.1932 17.933 20.0625 18.2869 20.0627 18.6527V37.0727C20.0609 38.731 19.5391 40.3469 18.5707 41.693C17.6024 43.0391 16.2362 44.0476 14.6646 44.5765C13.093 45.1054 11.3951 45.1281 9.80989 44.6414C8.2247 44.1547 6.83207 43.1831 5.82804 41.8634C4.82402 40.5437 4.25918 38.9423 4.21303 37.2847C4.16689 35.6271 4.64176 33.9968 5.5708 32.6233C6.49984 31.2497 7.83626 30.2022 9.39192 29.628C10.9476 29.0539 12.6441 28.9821 14.2427 29.4227V11.0702C14.2414 9.99343 14.622 8.95105 15.3169 8.12846C16.0118 7.30588 16.9759 6.75639 18.0377 6.57773L38.4527 3.06773C39.1087 2.95436 39.7816 2.98568 40.4242 3.15952C41.0668 3.33337 41.6636 3.64552 42.173 4.07415C42.6823 4.50278 43.0919 5.03753 43.373 5.64099C43.654 6.24444 43.7999 6.90203 43.8002 7.56773Z" fill="url(#paint0_linear_150_2438)"/>
<defs>
<linearGradient id="paint0_linear_150_2438" x1="4.20024" y1="24.0002" x2="43.8002" y2="24.0002" gradientUnits="userSpaceOnUse">
<stop stop-color="#FFA68D"/>
<stop offset="1" stop-color="#FD3A84"/>
</linearGradient>
</defs>
</svg>
