<svg width="40" height="40" viewBox="0 0 40 40" fill="none" xmlns="http://www.w3.org/2000/svg">
<g clip-path="url(#clip0_150_2954)">
<path d="M20 39.5312C30.7868 39.5312 39.5312 30.7868 39.5312 20C39.5312 9.21319 30.7868 0.46875 20 0.46875C9.21319 0.46875 0.46875 9.21319 0.46875 20C0.46875 30.7868 9.21319 39.5312 20 39.5312Z" fill="#CCFFFF"/>
<path opacity="0.49" d="M39.5313 20.0004C39.5313 19.9793 39.5306 19.9584 39.5305 19.9373L25.8652 6.29586C25.7108 6.14224 25.5017 6.0562 25.2838 6.05664H20.8805C20.7729 6.05631 20.6663 6.07717 20.5667 6.11805C20.4671 6.15892 20.3766 6.21901 20.3003 6.29488C20.2239 6.37075 20.1633 6.46092 20.1218 6.56023C20.0803 6.65954 20.0588 6.76605 20.0584 6.87368V18.4813L17.4992 15.9223C17.3448 15.7686 17.1358 15.6825 16.918 15.6829C11.852 15.6829 7.73047 19.7788 7.73047 24.8138C7.73036 26.0142 7.96841 27.2026 8.43084 28.3103C8.89328 29.418 9.5709 30.423 10.4245 31.267L18.6416 39.4838C19.0905 39.5151 19.5433 39.5316 20.0001 39.5316C30.7869 39.5316 39.5313 30.7872 39.5313 20.0004Z" fill="url(#paint0_linear_150_2954)"/>
<path fill-rule="evenodd" clip-rule="evenodd" d="M26.7112 7.48438C26.8188 7.48399 26.9255 7.50482 27.025 7.54568C27.1246 7.58654 27.2152 7.64662 27.2915 7.7225C27.3679 7.79838 27.4285 7.88857 27.47 7.9879C27.5115 8.08723 27.533 8.19377 27.5333 8.30141C27.5333 11.2284 29.9295 13.6098 32.8749 13.6098C33.0923 13.6091 33.301 13.6948 33.4552 13.848C33.6093 14.0013 33.6963 14.2094 33.697 14.4268V18.8027C33.6967 18.9104 33.6752 19.0169 33.6337 19.1162C33.5922 19.2155 33.5315 19.3057 33.4552 19.3816C33.3788 19.4574 33.2883 19.5175 33.1887 19.5584C33.0891 19.5993 32.9825 19.6201 32.8748 19.6198C31.013 19.6241 29.1787 19.1709 27.5332 18.3V26.2414C27.5332 31.2759 23.4111 35.3718 18.3452 35.3718C13.2794 35.3718 9.15771 31.2759 9.15771 26.2414C9.15771 21.207 13.2793 17.1104 18.3452 17.1104C18.5625 17.1099 18.7711 17.1957 18.9253 17.3489C19.0794 17.502 19.1665 17.7101 19.1673 17.9274V22.3034C19.167 22.411 19.1455 22.5175 19.104 22.6168C19.0625 22.7161 19.0018 22.8063 18.9255 22.8822C18.8492 22.958 18.7586 23.0181 18.6591 23.059C18.5595 23.0999 18.4528 23.1207 18.3452 23.1204C17.7288 23.1243 17.1273 23.3106 16.6166 23.6559C16.1059 24.0012 15.7089 24.49 15.4757 25.0606C15.2424 25.6312 15.1834 26.2582 15.306 26.8623C15.4287 27.4664 15.7275 28.0207 16.1647 28.4553C16.602 28.8898 17.1581 29.1851 17.763 29.304C18.3679 29.4228 18.9945 29.3599 19.5637 29.1231C20.1328 28.8863 20.6191 28.4862 20.9612 27.9734C21.3033 27.4605 21.4858 26.8579 21.4858 26.2414V8.30141C21.4862 8.19378 21.5077 8.08727 21.5492 7.98796C21.5907 7.88865 21.6514 7.79848 21.7277 7.72261C21.8041 7.64675 21.8946 7.58666 21.9942 7.54578C22.0937 7.50491 22.2004 7.48404 22.308 7.48438H26.7112Z" fill="#FF0B53"/>
<path fill-rule="evenodd" clip-rule="evenodd" d="M25.2837 6.05665C25.3914 6.05626 25.4981 6.07709 25.5976 6.11794C25.6972 6.1588 25.7878 6.21889 25.8641 6.29477C25.9405 6.37065 26.0011 6.46083 26.0426 6.56017C26.0841 6.6595 26.1056 6.76603 26.1059 6.87368C26.1059 9.80079 28.502 12.1821 31.4474 12.1821C31.5551 12.1818 31.6617 12.2026 31.7613 12.2435C31.8608 12.2844 31.9514 12.3445 32.0277 12.4204C32.104 12.4962 32.1647 12.5864 32.2062 12.6857C32.2477 12.785 32.2692 12.8915 32.2695 12.9991V17.3754C32.2692 17.483 32.2477 17.5895 32.2062 17.6888C32.1647 17.7881 32.104 17.8783 32.0277 17.9542C31.9514 18.03 31.8608 18.0901 31.7613 18.131C31.6617 18.1718 31.555 18.1927 31.4474 18.1923C29.5857 18.1967 27.7514 17.7435 26.1059 16.8727V24.8137C26.1059 29.8481 21.9838 33.9441 16.9179 33.9441C11.852 33.9441 7.73047 29.8481 7.73047 24.8137C7.73047 19.7792 11.852 15.6827 16.918 15.6827C17.1353 15.6821 17.344 15.7679 17.4982 15.9211C17.6523 16.0743 17.7393 16.2824 17.7401 16.4998V20.8754C17.7398 20.983 17.7182 21.0895 17.6767 21.1888C17.6352 21.2882 17.5746 21.3783 17.4982 21.4542C17.4219 21.5301 17.3314 21.5901 17.2318 21.631C17.1322 21.6719 17.0256 21.6928 16.918 21.6924C16.3015 21.6963 15.7001 21.8826 15.1894 22.2279C14.6787 22.5732 14.2818 23.062 14.0485 23.6326C13.8153 24.2033 13.7563 24.8302 13.8789 25.4343C14.0016 26.0384 14.3004 26.5927 14.7376 27.0272C15.1749 27.4617 15.731 27.757 16.3359 27.8759C16.9408 27.9947 17.5673 27.9317 18.1365 27.6949C18.7056 27.4581 19.1919 27.0581 19.534 26.5453C19.876 26.0324 20.0586 25.4298 20.0586 24.8134V6.87368C20.0593 6.65635 20.1462 6.44819 20.3003 6.29497C20.4545 6.14175 20.6631 6.05602 20.8805 6.05665H25.2837Z" fill="#00F0E9"/>
<path d="M26.106 24.8138V16.8724C27.7515 17.7433 29.5858 18.1965 31.4476 18.1921C31.6649 18.1928 31.8736 18.1072 32.0277 17.954C32.1819 17.8009 32.2689 17.5928 32.2697 17.3755V13.5748C31.5024 13.4878 30.763 13.2359 30.1023 12.8362C29.4416 12.4366 28.8752 11.8987 28.442 11.2595C27.81 10.8324 27.2774 10.2742 26.8805 9.6227C26.4837 8.97125 26.2319 8.24191 26.1424 7.48438H22.3083C22.2006 7.48403 22.094 7.50489 21.9944 7.54576C21.8948 7.58663 21.8043 7.64672 21.728 7.72259C21.6516 7.79846 21.5909 7.88863 21.5494 7.98794C21.508 8.08726 21.4864 8.19377 21.4861 8.30141V26.2414C21.481 26.949 21.2373 27.6343 20.7944 28.1862C20.3515 28.7381 19.7353 29.1244 19.0456 29.2826C18.3558 29.4409 17.6329 29.3617 16.9937 29.058C16.3546 28.7543 15.8366 28.2438 15.5236 27.6091C14.8894 27.2983 14.3795 26.7813 14.0775 26.1428C13.7755 25.5043 13.6992 24.7822 13.8613 24.0947C14.0233 23.4073 14.4141 22.7952 14.9694 22.3588C15.5248 21.9225 16.2119 21.6876 16.9182 21.6928C17.0258 21.6931 17.1325 21.6722 17.2321 21.6313C17.3316 21.5904 17.4222 21.5303 17.4985 21.4544C17.5748 21.3785 17.6355 21.2883 17.6769 21.189C17.7184 21.0896 17.7399 20.9831 17.7402 20.8755V17.1308C12.9555 17.4417 9.1582 21.4087 9.1582 26.2414C9.15692 28.3072 9.86235 30.3112 11.1573 31.9207C12.7904 33.2328 14.8232 33.9468 16.918 33.9441C21.9839 33.9442 26.106 29.8482 26.106 24.8138Z" fill="black"/>
</g>
<defs>
<linearGradient id="paint0_linear_150_2954" x1="12.9853" y1="13.6098" x2="33.4987" y2="34.1232" gradientUnits="userSpaceOnUse">
<stop stop-color="#1D1D1B"/>
<stop offset="0.369" stop-color="#1D1D1B" stop-opacity="0.856"/>
<stop offset="0.75" stop-color="#1D1D1B" stop-opacity="0.429"/>
<stop offset="1" stop-color="#1D1D1B" stop-opacity="0"/>
</linearGradient>
<clipPath id="clip0_150_2954">
<rect width="40" height="40" fill="white"/>
</clipPath>
</defs>
</svg>
