<svg width="40" height="40" viewBox="0 0 40 40" fill="none" xmlns="http://www.w3.org/2000/svg">
<g clip-path="url(#clip0_150_2960)">
<path fill-rule="evenodd" clip-rule="evenodd" d="M30 40H10C7.34787 39.9999 4.8044 38.9463 2.92906 37.0709C1.05372 35.1956 0.000116023 32.6521 0 30L0 10C0.000116023 7.34787 1.05372 4.8044 2.92906 2.92906C4.8044 1.05372 7.34787 0.000116023 10 0L30 0C32.6522 0 35.1957 1.05357 37.0711 2.92893C38.9464 4.8043 40 7.34784 40 10V30C40 32.6522 38.9464 35.1957 37.0711 37.0711C35.1957 38.9464 32.6522 40 30 40Z" fill="#0F9DFF"/>
<path fill-rule="evenodd" clip-rule="evenodd" d="M18.75 11.25H30C31.442 11.2499 32.829 10.696 33.8744 9.70276C34.9198 8.70948 35.5439 7.35266 35.6177 5.9125C35.6915 4.47235 35.2094 3.05885 34.271 1.96391C33.3325 0.868981 32.0095 0.176239 30.575 0.02875C30.3837 0.018125 30.1944 0 30 0H10C7.34787 0.000116023 4.8044 1.05372 2.92906 2.92906C1.05372 4.8044 0.000116023 7.34787 0 10L0 30C0.000116027 25.0272 1.97559 20.2582 5.49188 16.7419C9.00816 13.2256 13.7772 11.2501 18.75 11.25Z" fill="#00B7FF"/>
<path fill-rule="evenodd" clip-rule="evenodd" d="M30 20C28.0222 20 26.0888 20.5865 24.4443 21.6853C22.7998 22.7841 21.5181 24.3459 20.7612 26.1732C20.0043 28.0004 19.8063 30.0111 20.1922 31.9509C20.578 33.8907 21.5304 35.6725 22.9289 37.0711C24.3275 38.4696 26.1093 39.422 28.0491 39.8079C29.9889 40.1937 31.9996 39.9957 33.8268 39.2388C35.6541 38.4819 37.2159 37.2002 38.3147 35.5557C39.4135 33.9112 40 31.9778 40 30V10C40 12.6522 38.9464 15.1957 37.0711 17.0711C35.1957 18.9464 32.6522 20 30 20Z" fill="#1D83FF"/>
<path d="M15.3599 30.1599C24.9462 30.1599 30.2631 22.0199 29.9399 14.9099C30.6502 14.3967 31.2922 13.7952 31.8506 13.1199C31.8929 13.0676 31.9171 13.0031 31.9197 12.9359C31.9223 12.8687 31.903 12.8025 31.8648 12.7472C31.8266 12.6919 31.7715 12.6504 31.7077 12.6291C31.644 12.6077 31.575 12.6075 31.5112 12.6286C31.0897 12.764 30.6601 12.8728 30.2249 12.9542C30.1905 12.9604 30.155 12.9547 30.1242 12.9382C30.0934 12.9217 30.069 12.8953 30.055 12.8632C30.041 12.8312 30.0382 12.7954 30.047 12.7616C30.0559 12.7277 30.0758 12.6979 30.1037 12.6767C30.6638 12.2336 31.1255 11.6787 31.4593 11.0474C31.4882 10.9898 31.4982 10.9247 31.488 10.8611C31.4779 10.7975 31.448 10.7388 31.4026 10.6931C31.3572 10.6475 31.2986 10.6172 31.2351 10.6067C31.1716 10.5961 31.1064 10.6057 31.0487 10.6342C30.2537 11.0131 29.4142 11.2904 28.5499 11.4599C27.8463 10.7098 26.9334 10.1885 25.9298 9.96378C24.9261 9.73906 23.8781 9.82125 22.9218 10.1997C21.9655 10.5781 21.145 11.2353 20.5669 12.086C19.9888 12.9366 19.6798 13.9414 19.6799 14.9699C19.6813 15.2968 19.7121 15.6229 19.7718 15.9442C19.7762 15.9676 19.7753 15.9917 19.769 16.0146C19.7627 16.0376 19.7512 16.0588 19.7355 16.0766C19.7198 16.0945 19.7002 16.1085 19.6782 16.1176C19.6562 16.1267 19.6324 16.1307 19.6087 16.1292C15.8978 15.8919 12.4188 14.2425 9.88619 11.5199C9.81302 11.4387 9.7197 11.3782 9.61567 11.3446C9.51164 11.311 9.40059 11.3055 9.29374 11.3286C9.18688 11.3517 9.08802 11.4025 9.00713 11.4761C8.92624 11.5496 8.8662 11.6432 8.83307 11.7474C8.48311 12.7212 8.44511 13.7798 8.72433 14.7762C9.00356 15.7726 9.58615 16.6572 10.3912 17.3074C10.4173 17.3283 10.4359 17.3571 10.444 17.3896C10.4521 17.422 10.4494 17.4562 10.4362 17.487C10.423 17.5177 10.4 17.5432 10.3709 17.5597C10.3418 17.5761 10.3081 17.5826 10.2749 17.578C9.98191 17.5381 9.69305 17.472 9.41182 17.3805C9.30918 17.3462 9.19932 17.3394 9.09325 17.3609C8.98718 17.3824 8.88862 17.4314 8.80744 17.503C8.72418 17.573 8.66177 17.6645 8.62704 17.7676C8.59232 17.8706 8.58662 17.9813 8.61057 18.0874C9.69682 22.2699 12.6387 21.7367 12.6387 22.0536C12.6387 22.268 12.0568 22.268 11.2768 22.2699C11.1713 22.2704 11.0676 22.298 10.9758 22.3501C10.8839 22.4022 10.807 22.477 10.7524 22.5673C10.6979 22.6577 10.6674 22.7605 10.664 22.8661C10.6606 22.9716 10.6844 23.0762 10.7331 23.1699C11.1436 23.8757 11.7153 24.4744 12.4015 24.9169C13.0877 25.3595 13.8689 25.6333 14.6812 25.7161C14.7128 25.7185 14.7428 25.7306 14.7673 25.7507C14.7918 25.7707 14.8096 25.7978 14.8182 25.8283C14.8268 25.8588 14.8258 25.8912 14.8154 25.9211C14.805 25.951 14.7856 25.9769 14.7599 25.9955C13.341 27.0218 11.6825 27.6667 9.94307 27.8686C9.80841 27.8793 9.68118 27.9347 9.58163 28.026C9.48209 28.1173 9.41595 28.2393 9.39374 28.3725C9.37153 28.5058 9.39453 28.6426 9.45908 28.7613C9.52363 28.88 9.62602 28.9736 9.74994 29.0274C11.5249 29.778 13.4328 30.1631 15.3599 30.1599Z" fill="white"/>
</g>
<defs>
<clipPath id="clip0_150_2960">
<rect width="40" height="40" fill="white"/>
</clipPath>
</defs>
</svg>
