<svg width="40" height="40" viewBox="0 0 40 40" fill="none" xmlns="http://www.w3.org/2000/svg">
<g clip-path="url(#clip0_150_2936)">
<path fill-rule="evenodd" clip-rule="evenodd" d="M30 40H10C7.34787 39.9999 4.8044 38.9463 2.92906 37.0709C1.05372 35.1956 0.000116023 32.6521 0 30L0 10C0.000116023 7.34787 1.05372 4.8044 2.92906 2.92906C4.8044 1.05372 7.34787 0.000116023 10 0L30 0C32.6522 0 35.1957 1.05357 37.0711 2.92893C38.9464 4.8043 40 7.34784 40 10V30C40 32.6522 38.9464 35.1957 37.0711 37.0711C35.1957 38.9464 32.6522 40 30 40Z" fill="#9146FF"/>
<path fill-rule="evenodd" clip-rule="evenodd" d="M18.75 11.25H30C31.442 11.2499 32.829 10.696 33.8744 9.70276C34.9198 8.70948 35.5439 7.35266 35.6177 5.9125C35.6915 4.47235 35.2094 3.05885 34.271 1.96391C33.3325 0.868981 32.0095 0.176239 30.575 0.02875C30.3837 0.018125 30.1944 0 30 0H10C7.34787 0.000116023 4.8044 1.05372 2.92906 2.92906C1.05372 4.8044 0.000116023 7.34787 0 10L0 30C0.000116027 25.0272 1.97559 20.2582 5.49188 16.7419C9.00816 13.2256 13.7772 11.2501 18.75 11.25Z" fill="#B469FF"/>
<path fill-rule="evenodd" clip-rule="evenodd" d="M30 20C28.0222 20 26.0888 20.5865 24.4443 21.6853C22.7998 22.7841 21.5181 24.3459 20.7612 26.1732C20.0043 28.0004 19.8063 30.0111 20.1922 31.9509C20.578 33.8907 21.5304 35.6725 22.9289 37.0711C24.3275 38.4696 26.1093 39.422 28.0491 39.8079C29.9889 40.1937 31.9996 39.9957 33.8268 39.2388C35.6541 38.4819 37.2159 37.2002 38.3147 35.5557C39.4135 33.9112 40 31.9778 40 30V10C40 12.6522 38.9464 15.1957 37.0711 17.0711C35.1957 18.9464 32.6522 20 30 20Z" fill="#7328E1"/>
<path fill-rule="evenodd" clip-rule="evenodd" d="M27.0894 24.375L30.625 20.8394V9.375H14.375V24.375H19.375V28.125L23.125 24.375H27.0894ZM25.1075 29.8927C24.6385 30.3615 24.0025 30.6249 23.3394 30.625H19.375C19.375 30.625 16.9106 33.0896 15.4419 34.5581C15.3545 34.6454 15.2431 34.705 15.1219 34.7291C15.0007 34.7532 14.875 34.7408 14.7608 34.6935C14.6466 34.6462 14.549 34.5661 14.4803 34.4633C14.4117 34.3605 14.375 34.2397 14.375 34.1161V30.625H9.375C9.04348 30.625 8.72554 30.4933 8.49112 30.2589C8.2567 30.0245 8.125 29.7065 8.125 29.375V12.9106C8.12493 12.5822 8.18958 12.2571 8.31527 11.9537C8.44096 11.6504 8.62522 11.3748 8.8575 11.1427C9.80438 10.1954 11.4456 8.55456 12.3925 7.60725C12.8615 7.13845 13.4975 6.87507 14.1606 6.875H31.875C32.2065 6.875 32.5245 7.0067 32.7589 7.24112C32.9933 7.47554 33.125 7.79348 33.125 8.125V21.3573C33.1249 21.6888 32.9932 22.0067 32.7588 22.2411C31.4369 23.5628 26.8956 28.1042 25.1075 29.8927Z" fill="white"/>
<path d="M20 12.5H22.5V18.75H20V12.5Z" fill="white"/>
<path d="M25.625 12.5H28.125V18.75H25.625V12.5Z" fill="white"/>
</g>
<defs>
<clipPath id="clip0_150_2936">
<rect width="40" height="40" fill="white"/>
</clipPath>
</defs>
</svg>
