<svg width="40" height="40" viewBox="0 0 40 40" fill="none" xmlns="http://www.w3.org/2000/svg">
<g clip-path="url(#clip0_150_2912)">
<path fill-rule="evenodd" clip-rule="evenodd" d="M30 40H10C7.34787 39.9999 4.8044 38.9463 2.92906 37.0709C1.05372 35.1956 0.000116023 32.6521 0 30L0 10C0.000116023 7.34787 1.05372 4.8044 2.92906 2.92906C4.8044 1.05372 7.34787 0.000116023 10 0L30 0C32.6522 0 35.1957 1.05357 37.0711 2.92893C38.9464 4.8043 40 7.34784 40 10V30C40 32.6522 38.9464 35.1957 37.0711 37.0711C35.1957 38.9464 32.6522 40 30 40Z" fill="#00D264"/>
<path fill-rule="evenodd" clip-rule="evenodd" d="M18.75 11.25H30C31.442 11.2499 32.829 10.696 33.8744 9.70276C34.9198 8.70948 35.5439 7.35266 35.6177 5.9125C35.6915 4.47235 35.2094 3.05885 34.271 1.96391C33.3325 0.868981 32.0095 0.176239 30.575 0.02875C30.3837 0.018125 30.1944 0 30 0H10C7.34787 0.000116023 4.8044 1.05372 2.92906 2.92906C1.05372 4.8044 0.000116023 7.34787 0 10L0 30C0.000116027 25.0272 1.97559 20.2582 5.49188 16.7419C9.00816 13.2256 13.7772 11.2501 18.75 11.25Z" fill="#00EB78"/>
<path fill-rule="evenodd" clip-rule="evenodd" d="M30 20C28.0222 20 26.0888 20.5865 24.4443 21.6853C22.7998 22.7841 21.5181 24.3459 20.7612 26.1732C20.0043 28.0004 19.8063 30.0111 20.1922 31.9509C20.578 33.8907 21.5304 35.6725 22.9289 37.0711C24.3275 38.4696 26.1093 39.422 28.0491 39.8079C29.9889 40.1937 31.9996 39.9957 33.8268 39.2388C35.6541 38.4819 37.2159 37.2002 38.3147 35.5557C39.4135 33.9112 40 31.9778 40 30V10C40 12.6522 38.9464 15.1957 37.0711 17.0711C35.1957 18.9464 32.6522 20 30 20Z" fill="#00B950"/>
<path fill-rule="evenodd" clip-rule="evenodd" d="M13.5457 29.4331C13.712 29.3857 13.8864 29.3734 14.0577 29.3969C14.2291 29.4203 14.3938 29.479 14.5413 29.5693C17.0263 31.0498 19.9667 31.5714 22.8093 31.0359C25.652 30.5004 28.201 28.9448 29.977 26.6615C31.753 24.3783 32.6336 21.5248 32.4532 18.6378C32.2727 15.7508 31.0437 13.0292 28.9972 10.9849C26.9507 8.94056 24.2278 7.71441 21.3406 7.53704C18.4534 7.35967 15.6009 8.2433 13.3195 10.0217C11.0382 11.8002 9.48523 14.3509 8.95276 17.1941C8.42029 20.0373 8.94498 22.9771 10.4282 25.4606C10.5181 25.6077 10.5765 25.7718 10.5998 25.9426C10.623 26.1135 10.6105 26.2873 10.5632 26.4531C10.215 27.6849 9.37504 30.6249 9.37504 30.6249C9.37504 30.6249 12.315 29.7849 13.5457 29.4331ZM8.26191 26.7087C6.47499 23.6965 5.84916 20.1355 6.50195 16.6946C7.15473 13.2536 9.04122 10.1692 11.8072 8.02075C14.5731 5.87225 18.0283 4.80739 21.5238 5.02613C25.0193 5.24486 28.3148 6.73214 30.7913 9.20868C33.2678 11.6852 34.7551 14.9807 34.9738 18.4762C35.1926 21.9717 34.1277 25.4268 31.9792 28.1928C29.8307 30.9587 26.7464 32.8452 23.3054 33.498C19.8644 34.1508 16.3035 33.525 13.2913 31.7381C13.2913 31.7381 9.30566 32.8768 7.33191 33.4412C7.22469 33.4717 7.11126 33.473 7.00336 33.445C6.89546 33.417 6.797 33.3606 6.71817 33.2818C6.63934 33.203 6.583 33.1045 6.55498 32.9966C6.52696 32.8887 6.52827 32.7753 6.55879 32.6681C7.12316 30.6943 8.26191 26.7087 8.26191 26.7087Z" fill="white"/>
<path fill-rule="evenodd" clip-rule="evenodd" d="M13.7384 15.4912C13.9329 18.2898 15.1273 20.9251 17.1036 22.9162C19.0799 24.9072 21.7063 26.121 24.5034 26.3362H24.5047C24.9512 26.3708 25.4 26.3082 25.8201 26.1529C26.2403 25.9975 26.6218 25.753 26.9384 25.4362L27.3747 25C27.5806 24.7939 27.6964 24.5145 27.6965 24.2231V23.2968C27.6965 23.1807 27.6642 23.0669 27.6031 22.9681C27.5421 22.8693 27.4547 22.7894 27.3509 22.7375C26.6928 22.4087 25.264 21.6943 24.564 21.3443C24.4466 21.2856 24.3138 21.2653 24.1842 21.2863C24.0547 21.3073 23.935 21.3685 23.8422 21.4612C23.4934 21.81 22.9422 22.3618 22.6297 22.6737C22.5569 22.7465 22.4674 22.8001 22.3689 22.83C22.2705 22.8599 22.1662 22.865 22.0653 22.845L22.0597 22.8437C20.8497 22.6017 19.7384 22.007 18.8658 21.1344C17.9933 20.2619 17.3985 19.1506 17.1565 17.9406L17.1553 17.935C17.1352 17.8341 17.1404 17.7298 17.1702 17.6313C17.2001 17.5329 17.2538 17.4433 17.3265 17.3706C17.6384 17.0581 18.1903 16.5068 18.539 16.1581C18.6318 16.0652 18.693 15.9456 18.7139 15.816C18.7349 15.6865 18.7146 15.5536 18.6559 15.4362C18.3059 14.7362 17.5915 13.3075 17.2628 12.6493C17.2108 12.5455 17.1309 12.4582 17.0322 12.3971C16.9334 12.3361 16.8195 12.3037 16.7034 12.3037H15.9159C15.7289 12.3038 15.544 12.3431 15.3731 12.4191C15.2023 12.4951 15.0493 12.6061 14.924 12.745C14.7984 12.885 14.654 13.045 14.509 13.2062C14.2361 13.509 14.027 13.8637 13.8941 14.2491C13.7611 14.6345 13.7071 15.0427 13.7353 15.4493C13.7365 15.4631 13.7372 15.4768 13.7384 15.4912Z" fill="white"/>
</g>
<defs>
<clipPath id="clip0_150_2912">
<rect width="40" height="40" fill="white"/>
</clipPath>
</defs>
</svg>
