<svg width="40" height="40" viewBox="0 0 40 40" fill="none" xmlns="http://www.w3.org/2000/svg">
<g clip-path="url(#clip0_150_2930)">
<path d="M36.5216 33.5069C38.7714 31.0931 39.9979 28.109 39.9979 25C39.9979 21.1097 38.0762 17.5867 34.9984 15.0869C34.9281 24.0001 26.5461 31.2493 16.2503 31.2493H9.28223C11.9773 35.6942 17.4533 38.7486 23.7495 38.7486H38.748C39.2557 38.7486 39.7088 38.4439 39.9041 37.9752C40.0994 37.5065 39.99 36.9675 39.6307 36.616L36.5216 33.5069Z" fill="#64B5F6"/>
<path d="M16.2504 1.25195C7.29036 1.25195 0.00203315 7.41539 0.00203315 15.0006C0.00203315 18.1096 1.22847 21.0859 3.47824 23.5075L0.369183 26.6166C0.00984487 26.9759 -0.099519 27.5149 0.0957736 27.9758C0.291066 28.4445 0.744145 28.7492 1.25191 28.7492H16.2504C25.2104 28.7492 32.4987 22.5857 32.4987 15.0006C32.4987 7.41539 25.2104 1.25195 16.2504 1.25195Z" fill="#2196F3"/>
<path d="M23.7498 11.251H8.75134C8.06391 11.251 7.50146 11.8134 7.50146 12.5008C7.50146 13.1883 8.06391 13.7507 8.75134 13.7507H23.7498C24.4372 13.7507 24.9997 13.1883 24.9997 12.5008C24.9997 11.8134 24.4372 11.251 23.7498 11.251Z" fill="#FAFAFA"/>
<path d="M18.7503 16.25H8.75134C8.06391 16.25 7.50146 16.8124 7.50146 17.4999C7.50146 18.1873 8.06391 18.7497 8.75134 18.7497H18.7503C19.4378 18.7497 20.0002 18.1873 20.0002 17.4999C20.0002 16.8124 19.4378 16.25 18.7503 16.25Z" fill="#FAFAFA"/>
</g>
<defs>
<clipPath id="clip0_150_2930">
<rect width="40" height="40" fill="white"/>
</clipPath>
</defs>
</svg>
