<svg width="40" height="40" viewBox="0 0 40 40" fill="none" xmlns="http://www.w3.org/2000/svg">
<g clip-path="url(#clip0_150_2920)">
<path d="M8.42102 25.2633C8.42102 27.5884 6.53562 29.4738 4.21047 29.4738C1.88539 29.4738 0 27.5884 0 25.2633C0 22.9381 1.88539 21.0527 4.21055 21.0527H8.42109V25.2633H8.42102Z" fill="#FF185B"/>
<path d="M10.5264 25.2633C10.5264 22.9381 12.4118 21.0527 14.7369 21.0527C17.0621 21.0527 18.9475 22.9381 18.9475 25.2633V35.7896C18.9475 38.1148 17.0621 40.0002 14.7369 40.0002C12.4118 40.0002 10.5264 38.1148 10.5264 35.7896V25.2633Z" fill="#FF185B"/>
<path d="M14.7369 8.42102C12.4118 8.42102 10.5264 6.53562 10.5264 4.21047C10.5264 1.88539 12.4118 0 14.7369 0C17.0621 0 18.9475 1.88539 18.9475 4.21055V8.42109H14.7369V8.42102Z" fill="#00C5F1"/>
<path d="M14.7369 10.5264C17.062 10.5264 18.9474 12.4118 18.9474 14.7369C18.9474 17.0621 17.062 18.9475 14.7369 18.9475H4.21055C1.88539 18.9474 0 17.062 0 14.7369C0 12.4118 1.88539 10.5264 4.21055 10.5264H14.7369Z" fill="#00C5F1"/>
<path d="M31.5791 14.7369C31.5791 12.4118 33.4645 10.5264 35.7896 10.5264C38.1148 10.5264 40.0002 12.4118 40.0002 14.7369C40.0002 17.0621 38.1148 18.9475 35.7896 18.9475H31.5791V14.7369Z" fill="#00B67B"/>
<path d="M29.4738 14.7369C29.4738 17.062 27.5884 18.9474 25.2633 18.9474C22.9381 18.9474 21.0527 17.062 21.0527 14.7369V4.21055C21.0528 1.88539 22.9382 0 25.2633 0C27.5884 0 29.4738 1.88539 29.4738 4.21055V14.7369Z" fill="#00B67B"/>
<path d="M25.2633 31.5791C27.5884 31.5791 29.4738 33.4645 29.4738 35.7896C29.4738 38.1148 27.5884 40.0002 25.2633 40.0002C22.9381 40.0002 21.0527 38.1148 21.0527 35.7896V31.5791H25.2633Z" fill="#FFB20F"/>
<path d="M25.2633 29.4738C22.9381 29.4738 21.0527 27.5884 21.0527 25.2633C21.0527 22.9381 22.9381 21.0527 25.2633 21.0527H35.7896C38.1148 21.0527 40.0002 22.9381 40.0002 25.2633C40.0002 27.5884 38.1148 29.4738 35.7896 29.4738H25.2633Z" fill="#FFB20F"/>
</g>
<defs>
<clipPath id="clip0_150_2920">
<rect width="40" height="40" fill="white"/>
</clipPath>
</defs>
</svg>
